<?xml version="1.0" encoding="UTF-8" standalone="no"?>
<!-- Created with Inkscape (http://www.inkscape.org/) -->

<svg
   xmlns:dc="http://purl.org/dc/elements/1.1/"
   xmlns:cc="http://creativecommons.org/ns#"
   xmlns:rdf="http://www.w3.org/1999/02/22-rdf-syntax-ns#"
   xmlns:svg="http://www.w3.org/2000/svg"
   xmlns="http://www.w3.org/2000/svg"
   version="1.1"
   width="24"
   height="24"
   id="svg2">
  <defs
     id="defs4" />
  <metadata
     id="metadata7">
    <rdf:RDF>
      <cc:Work
         rdf:about="">
        <dc:format>image/svg+xml</dc:format>
        <dc:type
           rdf:resource="http://purl.org/dc/dcmitype/StillImage" />
        <dc:title></dc:title>
      </cc:Work>
    </rdf:RDF>
  </metadata>
  <g
     transform="translate(0,-1028.3622)"
     id="layer1">
    <path
       d="m 0.81813109,1028.5341 c -0.4550714,0 -0.8125,0.3574 -0.8125,0.8125 l 0,18.2812 c 0,0.4551 0.3574286,0.8125 0.8125,0.8125 l 9.85374391,0 0.59375,-1.4062 -9.4474939,0 c -0.2027701,0 -0.375,-0.1723 -0.375,-0.375 l 0,-13.625 c 0,-0.2028 0.1722299,-0.375 0.375,-0.375 l 20.3537439,0 c 0.20277,0 0.34375,0.1722 0.34375,0.375 l 0,13.5 1.125,1.7187 c 0.195487,-0.1471 0.34375,-0.3565 0.34375,-0.625 l 0,-18.2812 c 0,-0.4551 -0.357429,-0.8125 -0.8125,-0.8125 z m 16.16624391,0.75 c 0.653373,0 1.1875,0.5341 1.1875,1.1875 0,0.6533 -0.534127,1.1875 -1.1875,1.1875 -0.653373,0 -1.1875,-0.5342 -1.1875,-1.1875 0,-0.6534 0.534127,-1.1875 1.1875,-1.1875 z m 3.34375,0 c 0.653373,0 1.1875,0.5341 1.1875,1.1875 0,0.6533 -0.534127,1.1875 -1.1875,1.1875 -0.653373,0 -1.15625,-0.5342 -1.15625,-1.1875 0,-0.6534 0.502877,-1.1875 1.15625,-1.1875 z m -4.03125,10.1562 -1.875,4.5 -1.96875,4.5 3.09375,0 0.40625,3.875 3.4375,0 -0.40625,-3.875 3.09375,0 -2.875,-4.5 z"
       id="rect2985"
       style="color:#000000;fill:#ffffff;fill-opacity:1;fill-rule:nonzero;stroke:none;stroke-width:2;marker:none;visibility:visible;display:inline;overflow:visible;enable-background:accumulate" />
  </g>
</svg>
