<?xml version="1.0" encoding="UTF-8" standalone="no"?>
<svg
   xmlns:dc="http://purl.org/dc/elements/1.1/"
   xmlns:cc="http://creativecommons.org/ns#"
   xmlns:rdf="http://www.w3.org/1999/02/22-rdf-syntax-ns#"
   xmlns:svg="http://www.w3.org/2000/svg"
   xmlns="http://www.w3.org/2000/svg"
   version="1.1"
   id="svg2"
   viewBox="0 0 16 16"
   height="16"
   width="16">
  <defs
     id="defs4" />
  <metadata
     id="metadata7">
    <rdf:RDF>
      <cc:Work
         rdf:about="">
        <dc:format>image/svg+xml</dc:format>
        <dc:type
           rdf:resource="http://purl.org/dc/dcmitype/StillImage" />
        <dc:title></dc:title>
      </cc:Work>
    </rdf:RDF>
  </metadata>
  <g
     transform="translate(0,-1036.3622)"
     id="layer1">
    <path
       id="rect3336"
       transform="translate(0,1036.3622)"
       d="M 1.2734375 2 C 0.56834667 2 0 2.5683467 0 3.2734375 L 0 14.726562 C 0 15.431653 0.56834667 16 1.2734375 16 L 12.726562 16 C 13.431653 16 14 15.431653 14 14.726562 L 14 3.2734375 C 14 2.5683467 13.431653 2 12.726562 2 L 1.2734375 2 z M 2.5429688 3.75 L 11.457031 3.75 C 11.895906 3.75 12.25 4.1040935 12.25 4.5429688 L 12.25 13.457031 C 12.25 13.895906 11.895906 14.25 11.457031 14.25 L 2.5429688 14.25 C 2.1040935 14.25 1.75 13.895906 1.75 13.457031 L 1.75 4.5429688 C 1.75 4.1040935 2.1040935 3.75 2.5429688 3.75 z "
       style="fill:#000000" />
    <path
       id="path3342"
       d="m 3.65625,1042.3935 3.53125,6.8437 8.84375,-12.8125 -9.21875,8.3438 z"
       style="fill:#000000;fill-rule:evenodd;stroke:none;stroke-width:1px;stroke-linecap:butt;stroke-linejoin:miter;stroke-opacity:1" />
  </g>
</svg>
