<?xml version="1.0" encoding="UTF-8" standalone="no"?>
<!-- Created with Inkscape (http://www.inkscape.org/) -->

<svg
   xmlns:dc="http://purl.org/dc/elements/1.1/"
   xmlns:cc="http://creativecommons.org/ns#"
   xmlns:rdf="http://www.w3.org/1999/02/22-rdf-syntax-ns#"
   xmlns:svg="http://www.w3.org/2000/svg"
   xmlns="http://www.w3.org/2000/svg"
   version="1.1"
   width="24"
   height="24"
   id="svg2">
  <defs
     id="defs4" />
  <metadata
     id="metadata7">
    <rdf:RDF>
      <cc:Work
         rdf:about="">
        <dc:format>image/svg+xml</dc:format>
        <dc:type
           rdf:resource="http://purl.org/dc/dcmitype/StillImage" />
        <dc:title></dc:title>
      </cc:Work>
    </rdf:RDF>
  </metadata>
  <g
     transform="translate(0,-1028.3622)"
     id="layer1">
    <path
       d="m 0.84375,2.09375 c -0.4550714,0 -0.8125,0.3574 -0.8125,0.8125 l 0,18.25 c 0,0.4551 0.3574286,0.8125 0.8125,0.8125 l 8.0625,0 1.78125,0 12.5,0 c 0.186579,0 0.332903,-0.085 0.46875,-0.1875 0.03055,-0.023 0.0659,-0.0365 0.09375,-0.0625 0.05703,-0.057 0.118446,-0.1151 0.15625,-0.1875 0.01272,-0.022 0.02073,-0.0405 0.03125,-0.0625 C 23.95,21.43875 23.95983,21.407 23.96875,21.375 23.9857,21.315 24,21.22335 24,21.15625 l 0,-10.375 0,-7.875 c 0,-0.4551 -0.357429,-0.8125 -0.8125,-0.8125 l -22.34375,0 z M 17,2.84375 c 0.653373,0 1.1875,0.5341 1.1875,1.1875 0,0.6533 -0.534127,1.1875 -1.1875,1.1875 -0.653373,0 -1.1875,-0.5342 -1.1875,-1.1875 0,-0.6534 0.534127,-1.1875 1.1875,-1.1875 z m 3.34375,0 c 0.653373,0 1.1875,0.5341 1.1875,1.1875 0,0.6533 -0.534127,1.1875 -1.1875,1.1875 -0.653373,0 -1.15625,-0.5342 -1.15625,-1.1875 0,-0.6534 0.502877,-1.1875 1.15625,-1.1875 z M 1.6875,6.21875 c 0.044661,-0.019 0.1055575,0 0.15625,0 l 20.34375,0 c 0.20277,0 0.34375,0.1722 0.34375,0.375 l 0,4.1875 0,3.03125 C 20.247877,10.464279 16.421042,8.25 12.0625,8.25 7.626094,8.25 3.7369525,10.521612 1.46875,13.96875 l 0,-7.375 c 0,-0.1521 0.084767,-0.317 0.21875,-0.375 z M 12.0625,11.25 c 5.235722,0 9.475105,4.15224 9.65625,9.34375 l -6.375,0 c -0.147465,-1.386308 -1.148581,-2.537267 -2.46875,-2.875 l -0.8125,-1.53125 -1.875,-3.59375 -0.09375,3.59375 -0.0625,2.15625 c -0.6833162,0.5378 -1.1530608,1.338681 -1.25,2.25 l -0.46875,0 -5.90625,0 C 2.5873951,15.40224 6.8267777,11.25 12.0625,11.25 z"
       transform="translate(0,1028.3622)"
       id="path3471"
       style="fill:#ffffff;fill-opacity:1;stroke:none" />
  </g>
</svg>
