<?xml version="1.0" encoding="UTF-8" standalone="no"?>
<!-- Created with Inkscape (http://www.inkscape.org/) -->

<svg
   xmlns:dc="http://purl.org/dc/elements/1.1/"
   xmlns:cc="http://creativecommons.org/ns#"
   xmlns:rdf="http://www.w3.org/1999/02/22-rdf-syntax-ns#"
   xmlns:svg="http://www.w3.org/2000/svg"
   xmlns="http://www.w3.org/2000/svg"
   version="1.1"
   width="24"
   height="24"
   id="svg2">
  <defs
     id="defs4" />
  <metadata
     id="metadata7">
    <rdf:RDF>
      <cc:Work
         rdf:about="">
        <dc:format>image/svg+xml</dc:format>
        <dc:type
           rdf:resource="http://purl.org/dc/dcmitype/StillImage" />
        <dc:title></dc:title>
      </cc:Work>
    </rdf:RDF>
  </metadata>
  <g
     transform="translate(0,-1028.3622)"
     id="layer1">
    <path
       d="m 20.485268,1031.8769 c -4.68496,-4.6849 -12.2856261,-4.6849 -16.9705621,0 -4.6848653,4.6849 -4.6849606,12.2856 -3e-7,16.9706 4.68496,4.6849 12.2856974,4.6848 16.9705624,0 4.684936,-4.685 4.68496,-12.2856 0,-16.9706 z m -3.35705,1.7039 -5.145121,5.1451 -5.1282812,-5.1283 c 3.0338911,-2.3179 7.2346192,-2.325 10.2734022,-0.017 z m 1.636327,1.6363 c 2.322809,3.0401 2.322782,7.25 2.9e-5,10.2903 l -5.14515,-5.1452 5.145121,-5.1451 z m -13.5459743,0.017 5.1282813,5.1282 -5.128292,5.1283 c -2.3032963,-3.0324 -2.3033195,-7.224 1.07e-5,-10.2565 z m 6.7646083,6.7646 5.14515,5.1451 c -3.038851,2.3082 -7.2396671,2.3011 -10.2734419,-0.017 l 5.1282919,-5.1283 z"
       id="path2985"
       style="color:#000000;fill:#a02c2c;fill-opacity:1;fill-rule:nonzero;stroke:none;stroke-width:2;marker:none;visibility:visible;display:inline;overflow:visible;enable-background:accumulate" />
  </g>
</svg>
