<?xml version="1.0" encoding="UTF-8" standalone="no"?>
<!-- Created with Inkscape (http://www.inkscape.org/) -->

<svg
   xmlns:dc="http://purl.org/dc/elements/1.1/"
   xmlns:cc="http://creativecommons.org/ns#"
   xmlns:rdf="http://www.w3.org/1999/02/22-rdf-syntax-ns#"
   xmlns:svg="http://www.w3.org/2000/svg"
   xmlns="http://www.w3.org/2000/svg"
   xmlns:sodipodi="http://sodipodi.sourceforge.net/DTD/sodipodi-0.dtd"
   xmlns:inkscape="http://www.inkscape.org/namespaces/inkscape"
   width="24"
   height="24"
   id="svg2"
   version="1.1"
   inkscape:version="0.48.4 r9939"
   sodipodi:docname="document.svg"
   inkscape:export-filename="C:\code\work\librarian\librarian\static\img\document.png"
   inkscape:export-xdpi="90"
   inkscape:export-ydpi="90">
  <defs
     id="defs4" />
  <sodipodi:namedview
     id="base"
     pagecolor="#ffffff"
     bordercolor="#666666"
     borderopacity="1.0"
     inkscape:pageopacity="0.0"
     inkscape:pageshadow="2"
     inkscape:zoom="11.313708"
     inkscape:cx="-2.7882791"
     inkscape:cy="16.009591"
     inkscape:document-units="px"
     inkscape:current-layer="layer1"
     showgrid="false"
     inkscape:window-width="1920"
     inkscape:window-height="1018"
     inkscape:window-x="-8"
     inkscape:window-y="-8"
     inkscape:window-maximized="1" />
  <metadata
     id="metadata7">
    <rdf:RDF>
      <cc:Work
         rdf:about="">
        <dc:format>image/svg+xml</dc:format>
        <dc:type
           rdf:resource="http://purl.org/dc/dcmitype/StillImage" />
        <dc:title></dc:title>
      </cc:Work>
    </rdf:RDF>
  </metadata>
  <g
     inkscape:label="Layer 1"
     inkscape:groupmode="layer"
     id="layer1"
     transform="translate(0,-1028.3622)">
    <path
       style="color:#000000;fill:#ffffff;fill-opacity:1;fill-rule:nonzero;stroke:none;stroke-width:1;marker:none;visibility:visible;display:inline;overflow:visible;enable-background:accumulate"
       d="M 3 2 L 3 21 L 19 21 L 19 2 L 3 2 z M 20.03125 3.0625 L 20.03125 22.03125 L 7 22.03125 L 7 23 L 21.875 23 L 21.875 3.0625 L 20.03125 3.0625 z M 5 4 L 17 4 L 17 5 L 5 5 L 5 4 z M 5 7 L 17 7 L 17 8 L 5 8 L 5 7 z M 5 9 L 17 9 L 17 10 L 5 10 L 5 9 z M 5 11 L 17 11 L 17 12 L 5 12 L 5 11 z M 5 13 L 17 13 L 17 14 L 5 14 L 5 13 z M 5 15 L 17 15 L 17 16 L 5 16 L 5 15 z M 5 17 L 17 17 L 17 18 L 5 18 L 5 17 z "
       transform="translate(0,1028.3622)"
       id="rect3911" />
  </g>
</svg>
