<?xml version="1.0" encoding="UTF-8" standalone="no"?>
<svg
   xmlns:dc="http://purl.org/dc/elements/1.1/"
   xmlns:cc="http://creativecommons.org/ns#"
   xmlns:rdf="http://www.w3.org/1999/02/22-rdf-syntax-ns#"
   xmlns:svg="http://www.w3.org/2000/svg"
   xmlns="http://www.w3.org/2000/svg"
   version="1.1"
   id="svg3545"
   viewBox="0 0 16 16"
   height="16"
   width="16">
  <defs
     id="defs3547" />
  <metadata
     id="metadata3550">
    <rdf:RDF>
      <cc:Work
         rdf:about="">
        <dc:format>image/svg+xml</dc:format>
        <dc:type
           rdf:resource="http://purl.org/dc/dcmitype/StillImage" />
        <dc:title></dc:title>
      </cc:Work>
    </rdf:RDF>
  </metadata>
  <g
     transform="translate(0,-1036.3622)"
     id="layer1">
    <path
       id="rect3553"
       d="m 0.98283487,1036.3622 c -0.54452932,0 -0.982834745,0.4659 -0.982834745,1.045 l 0,11.3028 c 0,0.5789 0.438305445,1.045 0.982834745,1.045 l 1.81657673,0 0,1.5622 c 0,0.579 0.4383059,1.045 0.9828346,1.045 l 8.4355078,0 c 0.544529,0 0.982834,-0.466 0.982834,-1.045 l 0,-1.5622 1.816577,0 C 15.561694,1049.755 16,1049.2889 16,1048.71 l 0,-11.3028 c 0,-0.5791 -0.438306,-1.045 -0.982835,-1.045 l -14.03433012,0 z m 2.30897493,2.2505 0.6748406,0 0,4.6033 1.6282492,0 0,-4.6033 1.5909758,0 0,4.6033 1.6282492,0 0,-4.6033 1.5909754,0 0,4.6033 1.62825,0 0,-4.6033 0.680725,0 c 0.460995,0 0.83178,0.3942 0.83178,0.8844 l 0,6.6495 c 0,0.4901 -0.370785,0.8865 -0.83178,0.8865 l -2.189308,0 0,0.999 c 0,0.4902 -0.370785,0.8844 -0.8317802,0.8844 l -3.3859735,0 c -0.4609949,0 -0.8317803,-0.3942 -0.8317803,-0.8844 l 0,-0.999 -2.1834232,0 c -0.4609948,0 -0.8317803,-0.3964 -0.8317803,-0.8865 l 0,-6.6495 c 0,-0.4902 0.3707855,-0.8844 0.8317803,-0.8844 z"
       style="fill:#000000" />
  </g>
</svg>
