<?xml version="1.0" encoding="UTF-8" standalone="no"?>
<!-- Created with Inkscape (http://www.inkscape.org/) -->

<svg
   xmlns:dc="http://purl.org/dc/elements/1.1/"
   xmlns:cc="http://creativecommons.org/ns#"
   xmlns:rdf="http://www.w3.org/1999/02/22-rdf-syntax-ns#"
   xmlns:svg="http://www.w3.org/2000/svg"
   xmlns="http://www.w3.org/2000/svg"
   version="1.1"
   width="24"
   height="24"
   id="svg2">
  <defs
     id="defs4" />
  <metadata
     id="metadata7">
    <rdf:RDF>
      <cc:Work
         rdf:about="">
        <dc:format>image/svg+xml</dc:format>
        <dc:type
           rdf:resource="http://purl.org/dc/dcmitype/StillImage" />
        <dc:title></dc:title>
      </cc:Work>
    </rdf:RDF>
  </metadata>
  <g
     transform="translate(0,-1028.3622)"
     id="layer1">
    <path
       d="m 12,1028.8042 c -6.3737867,0 -11.55805836,5.1842 -11.55805836,11.5581 0,6.3737 5.18427166,11.5579 11.55805836,11.5579 6.373787,0 11.558058,-5.1842 11.558058,-11.5579 0,-6.3739 -5.184271,-11.5581 -11.558058,-11.5581 z m 0,2.6224 c 4.937958,0 8.935642,3.9977 8.935642,8.9357 0,4.9378 -3.997684,8.9355 -8.935642,8.9355 -4.937958,0 -8.9356417,-3.9977 -8.9356417,-8.9355 0,-4.938 3.9976837,-8.9357 8.9356417,-8.9357 z"
       id="path3885"
       style="color:#000000;fill:#ffffff;fill-opacity:1;fill-rule:nonzero;stroke:none;stroke-width:1;marker:none;visibility:visible;display:inline;overflow:visible;enable-background:accumulate" />
    <path
       d="m -13,-6.1293846 1.549324,4.9969237 5.2311237,-0.07064 -4.2735897,3.0176285 1.6836889,4.9532657 L -13,3.6358666 l -4.190547,3.1319265 1.683689,-4.9532656 -4.27359,-3.0176287 5.231125,0.07064 z"
       transform="matrix(1.1889337,0,0,1.1112168,27.601827,1039.713)"
       id="path3898"
       style="color:#000000;fill:#ffffff;fill-opacity:1;fill-rule:nonzero;stroke:none;stroke-width:1;marker:none;visibility:visible;display:inline;overflow:visible;enable-background:accumulate" />
  </g>
</svg>
