<?xml version="1.0" encoding="UTF-8" standalone="no"?>
<!-- Created with Inkscape (http://www.inkscape.org/) -->

<svg
   xmlns:dc="http://purl.org/dc/elements/1.1/"
   xmlns:cc="http://creativecommons.org/ns#"
   xmlns:rdf="http://www.w3.org/1999/02/22-rdf-syntax-ns#"
   xmlns:svg="http://www.w3.org/2000/svg"
   xmlns="http://www.w3.org/2000/svg"
   version="1.1"
   width="24"
   height="24"
   id="svg2">
  <defs
     id="defs4" />
  <metadata
     id="metadata7">
    <rdf:RDF>
      <cc:Work
         rdf:about="">
        <dc:format>image/svg+xml</dc:format>
        <dc:type
           rdf:resource="http://purl.org/dc/dcmitype/StillImage" />
        <dc:title></dc:title>
      </cc:Work>
    </rdf:RDF>
  </metadata>
  <g
     transform="translate(0,-1028.3622)"
     id="layer1">
    <path
       d="M 1,1 1,3 5.6875,3 C 6.4728384,2.6206237 7.3064898,2.4111641 8.15625,2.40625 l 0.03125,0 C 9.055662,2.4095947 9.857559,2.6456275 10.625,3 L 13.5,3 c 1.030236,-0.4594308 2.143092,-0.686107 3.3125,-0.5 0.532826,0.084797 1.03868,0.266563 1.53125,0.5 L 23,3 23,1 1,1 z M 1,4 1,6 2.53125,6 C 2.9867734,5.2101591 3.5505962,4.5519641 4.1875,4 L 1,4 z m 18.875,0 c 0.617453,0.5462312 1.152979,1.2229107 1.59375,2 L 23,6 23,4 19.875,4 z M 1,7 1,9 1.46875,9 C 1.4920296,8.8339362 1.5242972,8.6683836 1.5625,8.5 1.6823738,7.9716148 1.8643485,7.4737086 2.0625,7 L 1,7 z m 20.96875,0 c 0.192987,0.4718969 0.349941,0.9763235 0.46875,1.5 0.0382,0.1683836 0.07047,0.3339362 0.09375,0.5 L 23,9 23,7 21.96875,7 z M 1,10 1,12 1.78125,12 C 1.5680509,11.369246 1.4249147,10.698723 1.40625,10 L 1,10 z m 21.59375,0 c -0.01866,0.698723 -0.161801,1.369246 -0.375,2 L 23,12 23,10 22.59375,10 z M 1,13 1,15 3.46875,15 C 3.1811142,14.628664 2.9061428,14.250301 2.65625,13.84375 2.4960043,13.583028 2.3580497,13.28359 2.21875,13 L 1,13 z m 20.78125,0 c -0.1393,0.28359 -0.277254,0.583028 -0.4375,0.84375 C 21.093857,14.250301 20.818886,14.628664 20.53125,15 L 23,15 23,13 21.78125,13 z M 1,16 1,18 6.4375,18 C 6.267964,17.857934 6.1071044,17.74327 5.9375,17.59375 5.3879248,17.109207 4.8370238,16.572466 4.3125,16 L 1,16 z m 18.6875,0 c -0.524524,0.572466 -1.075425,1.109207 -1.625,1.59375 -0.169604,0.14952 -0.330464,0.264184 -0.5,0.40625 L 23,18 23,16 19.6875,16 z M 1,19 l 0,2 9.65625,0 C 10.547704,20.938089 9.3029919,20.215639 7.6875,19 L 1,19 z m 15.3125,0 c -1.615492,1.215639 -2.860204,1.938089 -2.96875,2 L 23,21 23,19 16.3125,19 z M 1,22 l 0,2 22,0 0,-2 -22,0 z"
       transform="translate(0,1028.3622)"
       id="rect2994"
       style="fill:#333333;fill-opacity:1;stroke:none" />
    <path
       d="m 8.1737926,1033.2941 c -1.7942021,0 -3.5315289,1.2449 -4.1840536,4.1211 C 2.9352461,1042.063 12,1047.2658 12,1047.2658 c 0,0 9.064754,-5.2028 8.010261,-9.8506 -1.160042,-5.1132 -5.725864,-5.0615 -8.010261,-2.053 -0.999424,-1.3161 -2.4307162,-2.0693 -3.8262074,-2.0681 z"
       id="path3990"
       style="fill:#333333;fill-opacity:1;stroke:none" />
  </g>
</svg>
