<?xml version="1.0" encoding="UTF-8" standalone="no"?>
<!-- Created with Inkscape (http://www.inkscape.org/) -->

<svg
   xmlns:dc="http://purl.org/dc/elements/1.1/"
   xmlns:cc="http://creativecommons.org/ns#"
   xmlns:rdf="http://www.w3.org/1999/02/22-rdf-syntax-ns#"
   xmlns:svg="http://www.w3.org/2000/svg"
   xmlns="http://www.w3.org/2000/svg"
   version="1.1"
   width="24"
   height="24"
   id="svg2">
  <defs
     id="defs4" />
  <metadata
     id="metadata7">
    <rdf:RDF>
      <cc:Work
         rdf:about="">
        <dc:format>image/svg+xml</dc:format>
        <dc:type
           rdf:resource="http://purl.org/dc/dcmitype/StillImage" />
        <dc:title></dc:title>
      </cc:Work>
    </rdf:RDF>
  </metadata>
  <g
     transform="translate(0,-1028.3622)"
     id="layer1">
    <path
       d="m 3.34375,0.6875 c -0.554,0 -1,0.446 -1,1 l 0,0.875 -1.28125,0 c -0.554,0 -1,0.446 -1,1 l 0,2.1218592 c 0,-0.554 0.446,-0.7790291 1,-0.7790291 l 22,0 c 0.554,0 1,0.2250291 1,0.7790291 l 0,-2.1218592 c 0,-0.554 -0.446,-1 -1,-1 l -12.75,0 0,-0.875 c 0,-0.554 -0.446,-1 -1,-1 z M 1.0625,6.5660218 c -0.554,0 -1,0.446 -1,1 l 0,15.0277282 c 0,0.554 0.446,1 1,1 l 22,0 c 0.554,0 1,-0.446 1,-1 l 0,-15.0277282 c 0,-0.554 -0.446,-1 -1,-1 z"
       transform="translate(0,1028.3622)"
       id="rect2985"
       style="color:#000000;fill:#ffffff;fill-opacity:1;fill-rule:nonzero;stroke:none;stroke-width:2;marker:none;visibility:visible;display:inline;overflow:visible;enable-background:accumulate" />
  </g>
</svg>
