<?xml version="1.0" encoding="UTF-8" standalone="no"?>
<!-- Created with Inkscape (http://www.inkscape.org/) -->

<svg
   xmlns:dc="http://purl.org/dc/elements/1.1/"
   xmlns:cc="http://creativecommons.org/ns#"
   xmlns:rdf="http://www.w3.org/1999/02/22-rdf-syntax-ns#"
   xmlns:svg="http://www.w3.org/2000/svg"
   xmlns="http://www.w3.org/2000/svg"
   version="1.1"
   width="240"
   height="120"
   id="svg3158">
  <defs
     id="defs3160" />
  <metadata
     id="metadata3163">
    <rdf:RDF>
      <cc:Work
         rdf:about="">
        <dc:format>image/svg+xml</dc:format>
        <dc:type
           rdf:resource="http://purl.org/dc/dcmitype/StillImage" />
        <dc:title></dc:title>
      </cc:Work>
    </rdf:RDF>
  </metadata>
  <g
     transform="translate(0,-932.36218)"
     id="layer1">
    <g
       transform="matrix(0.76391284,0,0,0.76391284,-1178.9962,-534.30155)"
       id="g4537"
       style="fill:#000000">
      <g
         transform="matrix(1.3596382,0,0,1.3596382,1549.631,1007.1722)"
         id="g4541"
         style="fill:#000000;fill-opacity:1">
        <g
           transform="matrix(0.90453367,0,0,0.90453367,-208.37395,840.97083)"
           id="g3247"
           style="fill:#ffffff">
          <g
             id="text4543"
             style="font-size:18.62613678px;font-style:normal;font-variant:normal;font-weight:normal;font-stretch:normal;text-align:start;line-height:125%;letter-spacing:0px;word-spacing:0px;writing-mode:lr-tb;text-anchor:start;fill:#ffffff;stroke:none;font-family:Arial;-inkscape-font-specification:Arial">
            <path
               d="m 228.53441,-93.276835 c 0.002,0.06713 0.026,0.123784 0.0722,0.169961 0.0462,0.04618 0.10283,0.07024 0.16997,0.07218 l 0.39114,0 c 0.0753,-0.0019 0.13426,-0.026 0.17695,-0.07218 0.0427,-0.04618 0.0644,-0.10283 0.0652,-0.169961 l 0,-6.053417 8.36302,0 0,6.053417 c 0.002,0.06713 0.026,0.123784 0.0722,0.169961 0.0462,0.04618 0.10282,0.07024 0.16996,0.07218 l 0.39114,0 c 0.0753,-0.0019 0.13425,-0.026 0.17695,-0.07218 0.0427,-0.04618 0.0644,-0.10283 0.0652,-0.169961 l 0,-12.553855 c -7.9e-4,-0.0671 -0.0225,-0.12377 -0.0652,-0.16996 -0.0427,-0.0462 -0.10168,-0.0702 -0.17695,-0.0722 l -0.39114,0 c -0.0671,0.002 -0.1238,0.026 -0.16996,0.0722 -0.0462,0.0462 -0.0703,0.10284 -0.0722,0.16996 l 0,5.71815 -8.36302,0 0,-5.71815 c -7.8e-4,-0.0671 -0.0225,-0.12377 -0.0652,-0.16996 -0.0427,-0.0462 -0.10167,-0.0702 -0.17695,-0.0722 l -0.39114,0 c -0.0671,0.002 -0.12379,0.026 -0.16997,0.0722 -0.0462,0.0462 -0.0702,0.10284 -0.0722,0.16996 z"
               id="path3201"
               style="font-weight:300;text-align:center;line-height:125%;text-anchor:middle;fill:#ffffff;font-family:Brandon Grotesque Light;-inkscape-font-specification:'Brandon Grotesque Light, Light'" />
            <path
               d="m 242.46414,-97.784302 c 0.0186,1.452435 0.46099,2.631298 1.3271,3.536592 0.8661,0.905296 2.04418,1.371719 3.53426,1.39927 1.49977,-0.02755 2.68639,-0.493974 3.55988,-1.39927 0.87346,-0.905295 1.31971,-2.084158 1.33873,-3.536592 l 0,-8.046388 c -0.002,-0.0671 -0.026,-0.12377 -0.0722,-0.16996 -0.0462,-0.0462 -0.10285,-0.0702 -0.16996,-0.0722 l -0.37252,0 c -0.0924,7.9e-4 -0.15911,0.0225 -0.20023,0.0652 -0.0411,0.0427 -0.0613,0.10168 -0.0605,0.17695 l 0,7.971884 c -0.0117,1.224268 -0.3702,2.216872 -1.07564,2.977815 -0.70547,0.760947 -1.68798,1.152867 -2.94755,1.17576 -1.24988,-0.02367 -2.22386,-0.418693 -2.92194,-1.185073 -0.69808,-0.766375 -1.05275,-1.762084 -1.064,-2.987128 l 0,-7.953258 c -0.002,-0.0671 -0.026,-0.12377 -0.0722,-0.16996 -0.0462,-0.0462 -0.10283,-0.0702 -0.16996,-0.0722 l -0.39114,0 c -0.0671,0.002 -0.12379,0.026 -0.16996,0.0722 -0.0462,0.0462 -0.0702,0.10284 -0.0722,0.16996 z"
               id="path3203"
               style="font-weight:300;text-align:center;line-height:125%;text-anchor:middle;fill:#ffffff;font-family:Brandon Grotesque Light;-inkscape-font-specification:'Brandon Grotesque Light, Light'" />
            <path
               d="m 254.99401,-93.276835 c -0.0182,0.09158 -0.01,0.155215 0.0256,0.190915 0.0353,0.0357 0.0951,0.05277 0.17928,0.05122 l 0.44702,0 c 0.057,-0.0016 0.10593,-0.02173 0.14668,-0.06053 0.0407,-0.0388 0.0663,-0.08692 0.0768,-0.14435 l 2.10473,-10.91478 c 0.0217,1e-5 0.0341,1e-5 0.0373,0 l 3.76243,11.156916 c 0.0206,0.06325 0.0539,0.104382 0.10011,0.123396 0.0462,0.01901 0.0935,0.02755 0.14203,0.02561 l 0.0745,0 c 0.0574,7.76e-4 0.1102,-0.01009 0.15832,-0.0326 0.0481,-0.02251 0.0823,-0.06131 0.10244,-0.116412 l 3.76243,-11.15691 c 0.003,1e-5 0.0155,1e-5 0.0373,0 l 2.10472,10.914774 c 0.0105,0.05743 0.0361,0.105546 0.0768,0.14435 0.0407,0.0388 0.0896,0.05898 0.14668,0.06053 l 0.44702,0 c 0.0842,0.0016 0.14395,-0.01552 0.17928,-0.05122 0.0353,-0.0357 0.0438,-0.09934 0.0256,-0.190915 l -2.64488,-12.851869 c -0.0105,-0.038 -0.0314,-0.0691 -0.0629,-0.0931 -0.0314,-0.0241 -0.0664,-0.0365 -0.10477,-0.0373 l -0.20489,0 c -0.09,-0.003 -0.15212,0.0404 -0.18625,0.13039 l -3.85557,11.436301 c -0.009,10e-7 -0.0147,10e-7 -0.0186,0 -0.004,10e-7 -0.0101,10e-7 -0.0186,0 l -3.83693,-11.436301 c -0.0342,-0.09 -0.0962,-0.13348 -0.18626,-0.13039 l -0.20489,0 c -0.0384,7.9e-4 -0.0733,0.0132 -0.10477,0.0373 -0.0314,0.0241 -0.0524,0.0551 -0.0629,0.0931 z"
               id="path3205"
               style="font-weight:300;text-align:center;line-height:125%;text-anchor:middle;fill:#ffffff;font-family:Brandon Grotesque Light;-inkscape-font-specification:'Brandon Grotesque Light, Light'" />
            <path
               d="m 270.31169,-93.034698 0.52153,0 c 0.0656,-0.0023 0.12068,-0.02095 0.1653,-0.05588 0.0446,-0.03492 0.0764,-0.07218 0.0955,-0.111756 l 1.49007,-3.427165 7.11509,0 1.5087,3.427165 c 0.019,0.03958 0.0508,0.07683 0.0955,0.111756 0.0446,0.03492 0.0997,0.05355 0.1653,0.05588 l 0.48428,0 c 0.0989,-0.0023 0.15714,-0.02561 0.17461,-0.06985 0.0174,-0.04424 0.0151,-0.09546 -0.007,-0.153663 l -5.6809,-12.963619 c -0.0287,-0.0543 -0.0644,-0.09 -0.1071,-0.1071 -0.0427,-0.0171 -0.0877,-0.0248 -0.13503,-0.0233 l -0.0559,0 c -0.0477,7.8e-4 -0.092,0.0132 -0.13271,0.0373 -0.0408,0.0241 -0.071,0.0551 -0.0908,0.0931 l -5.73678,12.963619 c -0.0272,0.0745 -0.0287,0.130381 -0.005,0.167633 0.0241,0.03725 0.0691,0.05588 0.13504,0.05588 z m 2.60763,-4.321209 3.2409,-7.506233 0.0373,0 3.18502,7.506233 z"
               id="path3207"
               style="font-weight:300;text-align:center;line-height:125%;text-anchor:middle;fill:#ffffff;font-family:Brandon Grotesque Light;-inkscape-font-specification:'Brandon Grotesque Light, Light'" />
            <path
               d="m 284.19454,-93.276835 c 0.002,0.06713 0.026,0.123784 0.0722,0.169961 0.0462,0.04618 0.10283,0.07024 0.16996,0.07218 l 0.35389,0 c 0.0671,-0.0019 0.12378,-0.026 0.16996,-0.07218 0.0462,-0.04618 0.0702,-0.10283 0.0722,-0.169961 l 0,-11.324545 c 7.7e-4,1e-5 0.004,1e-5 0.009,0 0.005,1e-5 0.009,1e-5 0.009,0 2.18951,2.8941 3.90232,5.151133 5.13842,6.771095 1.23609,1.619971 2.12936,2.783895 2.6798,3.491774 0.55043,0.707881 0.8919,1.140739 1.02443,1.298574 0.1325,0.157835 0.18993,0.221667 0.17229,0.191497 l 0.24213,0 c 0.0776,3.88e-4 0.1459,-0.01901 0.20489,-0.05821 0.059,-0.03919 0.09,-0.100502 0.0931,-0.18393 l 0,-12.74011 c -0.002,-0.0671 -0.026,-0.12377 -0.0722,-0.16996 -0.0462,-0.0462 -0.10284,-0.0702 -0.16996,-0.0722 l -0.37252,0 c -0.0671,0.002 -0.12379,0.026 -0.16996,0.0722 -0.0462,0.0462 -0.0702,0.10284 -0.0722,0.16996 l 0,11.212786 c 0.003,2e-6 -0.003,2e-6 -0.0186,0 l -8.94043,-11.641186 -0.31664,0 c -0.0768,7.9e-4 -0.14202,0.0225 -0.19557,0.0652 -0.0536,0.0427 -0.0815,0.10167 -0.0838,0.17694 z"
               id="path3209"
               style="font-weight:300;text-align:center;line-height:125%;text-anchor:middle;fill:#ffffff;font-family:Brandon Grotesque Light;-inkscape-font-specification:'Brandon Grotesque Light, Light'" />
            <path
               d="m 298.56432,-93.276835 c 0.002,0.06713 0.026,0.123784 0.0722,0.169961 0.0462,0.04618 0.10283,0.07024 0.16996,0.07218 l 0.39115,0 c 0.0679,-7.77e-4 0.12766,-0.02251 0.17927,-0.06519 0.0516,-0.04268 0.0788,-0.101667 0.0815,-0.176946 l 0,-12.55386 c -0.002,-0.0671 -0.026,-0.12376 -0.0722,-0.16996 -0.0462,-0.0462 -0.10283,-0.0702 -0.16996,-0.0722 l -0.40977,0 c -0.0671,0.002 -0.12378,0.026 -0.16996,0.0722 -0.0462,0.0462 -0.0702,0.10284 -0.0722,0.16996 z"
               id="path3211"
               style="font-weight:300;text-align:center;line-height:125%;text-anchor:middle;fill:#ffffff;font-family:Brandon Grotesque Light;-inkscape-font-specification:'Brandon Grotesque Light, Light'" />
            <path
               d="m 305.37709,-93.276835 c 0.002,0.06713 0.026,0.123784 0.0722,0.169961 0.0462,0.04618 0.10283,0.07024 0.16996,0.07218 l 0.33527,0 c 0.0939,-0.0019 0.16685,-0.026 0.21885,-0.07218 0.052,-0.04618 0.0784,-0.10283 0.0792,-0.169961 l 0,-11.995075 3.57617,0 c 0.0753,-0.002 0.13426,-0.026 0.17695,-0.0722 0.0427,-0.0462 0.0644,-0.10282 0.0652,-0.16996 l 0,-0.31664 c -7.8e-4,-0.0671 -0.0225,-0.12377 -0.0652,-0.16996 -0.0427,-0.0462 -0.10168,-0.0702 -0.17695,-0.0722 l -8.00913,0 c -0.0671,7.9e-4 -0.12379,0.0225 -0.16996,0.0652 -0.0462,0.0427 -0.0702,0.10168 -0.0722,0.17695 l 0,0.27939 c -0.002,0.085 0.0155,0.15251 0.0512,0.20256 0.0357,0.0501 0.0993,0.0757 0.19092,0.0768 l 3.55754,0 z"
               id="path3213"
               style="font-weight:300;text-align:center;line-height:125%;text-anchor:middle;fill:#ffffff;font-family:Brandon Grotesque Light;-inkscape-font-specification:'Brandon Grotesque Light, Light'" />
            <path
               d="m 314.94451,-93.276835 c 0.0113,0.14047 0.0865,0.218078 0.22584,0.232823 0.1393,0.01475 0.27512,0.01785 0.40744,0.0093 0.0671,-0.0019 0.12378,-0.026 0.16996,-0.07218 0.0462,-0.04618 0.0702,-0.10283 0.0722,-0.169961 l 0,-6.109294 4.84273,-6.407313 c 0.0543,-0.0768 0.0667,-0.14201 0.0372,-0.19557 -0.0295,-0.0535 -0.0916,-0.0815 -0.18625,-0.0838 l -0.55878,0 c -0.0473,2e-5 -0.0924,0.009 -0.13504,0.0279 -0.0427,0.0186 -0.0784,0.0466 -0.1071,0.0838 l -4.32121,5.79265 -4.2467,-5.79265 c -0.0287,-0.0372 -0.0644,-0.0652 -0.1071,-0.0838 -0.0427,-0.0186 -0.0877,-0.0279 -0.13504,-0.0279 l -0.55877,0 c -0.0947,0.002 -0.15677,0.0303 -0.18626,0.0838 -0.0295,0.0536 -0.0171,0.11875 0.0372,0.19557 l 4.7496,6.425939 z"
               id="path3215"
               style="font-weight:300;text-align:center;line-height:125%;text-anchor:middle;fill:#ffffff;font-family:Brandon Grotesque Light;-inkscape-font-specification:'Brandon Grotesque Light, Light'" />
            <path
               d="m 321.88367,-102.27314 0.20488,0 c 0.0473,-0.002 0.0877,-0.0217 0.12107,-0.0605 0.0334,-0.0388 0.0551,-0.0869 0.0652,-0.14435 l 0.29802,-3.29678 c 0.008,-0.0939 -0.008,-0.16685 -0.0489,-0.21886 -0.0407,-0.052 -0.099,-0.0784 -0.17461,-0.0792 l -0.39115,0 c -0.0671,0.002 -0.12378,0.026 -0.16996,0.0722 -0.0462,0.0462 -0.0702,0.10284 -0.0722,0.16996 l 0,3.35266 c 10e-4,0.0737 0.0175,0.12651 0.0489,0.15832 0.0314,0.0318 0.071,0.0473 0.11874,0.0466 z"
               id="path3217"
               style="font-weight:300;text-align:center;line-height:125%;text-anchor:middle;fill:#ffffff;font-family:Brandon Grotesque Light;-inkscape-font-specification:'Brandon Grotesque Light, Light'" />
            <path
               d="m 324.68574,-94.375763 c 0.13193,0.161426 0.54325,0.443918 1.23396,0.847478 0.69071,0.403561 1.59562,0.630176 2.71473,0.679845 1.10629,-0.02173 2.05078,-0.341474 2.83346,-0.959233 0.78267,-0.617758 1.19166,-1.403149 1.22698,-2.356176 -0.0144,-1.0543 -0.39076,-1.869958 -1.12919,-2.446978 -0.73845,-0.577008 -1.75278,-1.07137 -3.04301,-1.483083 -0.95186,-0.29025 -1.70233,-0.65035 -2.2514,-1.08031 -0.54908,-0.42993 -0.82924,-1.03217 -0.8405,-1.80671 -0.012,-0.56769 0.22623,-1.11327 0.71477,-1.63675 0.48854,-0.52345 1.29954,-0.80362 2.43301,-0.84049 0.73805,0.0342 1.36667,0.1754 1.88587,0.42374 0.51919,0.24835 0.80324,0.39891 0.85214,0.45168 0.0916,0.0543 0.16917,0.0714 0.23282,0.0512 0.0636,-0.0202 0.12261,-0.0683 0.17695,-0.14435 0.019,-0.038 0.0415,-0.0784 0.0675,-0.12107 0.026,-0.0427 0.0531,-0.083 0.0815,-0.12107 0.0586,-0.10243 0.0718,-0.18625 0.0396,-0.25145 -0.0322,-0.0652 -0.0702,-0.11174 -0.11408,-0.13969 -0.0183,-0.0396 -0.32169,-0.19789 -0.91034,-0.47497 -0.58866,-0.27704 -1.3531,-0.43536 -2.29331,-0.47496 -1.43886,0.0501 -2.47259,0.42492 -3.10122,1.12454 -0.62862,0.69965 -0.93595,1.42373 -0.92198,2.17225 0.0147,1.04228 0.3438,1.82612 0.98718,2.35152 0.64336,0.52541 1.51257,0.964671 2.60762,1.31778 1.13656,0.362435 2.02052,0.778413 2.65186,1.247935 0.63133,0.469533 0.95186,1.109021 0.96156,1.918468 -0.0245,0.698861 -0.3341,1.2848 -0.92896,1.757818 -0.59487,0.473021 -1.32827,0.719038 -2.20019,0.738052 -0.95497,-0.04928 -1.74113,-0.267359 -2.3585,-0.654235 -0.61737,-0.386874 -0.9798,-0.64686 -1.08729,-0.779959 -0.0741,-0.06325 -0.14474,-0.08576 -0.21187,-0.06752 -0.0671,0.01824 -0.1331,0.06558 -0.1979,0.142023 l -0.16763,0.223511 c -0.0699,0.100116 -0.0931,0.179276 -0.0699,0.237481 0.0233,0.05821 0.0652,0.109428 0.12573,0.153663 z"
               id="path3219"
               style="font-weight:300;text-align:center;line-height:125%;text-anchor:middle;fill:#ffffff;font-family:Brandon Grotesque Light;-inkscape-font-specification:'Brandon Grotesque Light, Light'" />
            <path
               d="m 339.56365,-93.276835 c 0.002,0.06713 0.026,0.123784 0.0722,0.169961 0.0462,0.04618 0.10283,0.07024 0.16996,0.07218 l 0.33527,0 c 0.0939,-0.0019 0.16685,-0.026 0.21885,-0.07218 0.052,-0.04618 0.0784,-0.10283 0.0792,-0.169961 l 0,-4.395712 3.38992,0 c 1.17691,-0.03065 2.16176,-0.4443 2.95453,-1.24095 0.79275,-0.796639 1.20485,-1.792343 1.23629,-2.987133 -0.031,-1.17613 -0.44393,-2.15787 -1.23862,-2.94522 -0.79471,-0.78732 -1.78499,-1.19631 -2.97083,-1.22698 l -4.00457,0 c -0.0671,0.002 -0.12379,0.026 -0.16996,0.0722 -0.0462,0.0462 -0.0702,0.10284 -0.0722,0.16996 z m 0.87541,-5.252503 0,-6.668072 3.31541,0 c 0.94798,0.0225 1.74346,0.34071 2.38644,0.95458 0.64298,0.61389 0.97747,1.38841 1.00348,2.32358 -0.0264,0.96428 -0.36011,1.76442 -1.00115,2.400411 -0.64105,0.636002 -1.43109,0.965836 -2.37014,0.989501 z"
               id="path3221"
               style="font-weight:300;text-align:center;line-height:125%;text-anchor:middle;fill:#ffffff;font-family:Brandon Grotesque Light;-inkscape-font-specification:'Brandon Grotesque Light, Light'" />
            <path
               d="m 350.47391,-97.784302 c 0.0186,1.452435 0.46099,2.631298 1.3271,3.536592 0.8661,0.905296 2.04418,1.371719 3.53426,1.39927 1.49976,-0.02755 2.68639,-0.493974 3.55987,-1.39927 0.87347,-0.905295 1.31971,-2.084158 1.33874,-3.536592 l 0,-8.046388 c -0.002,-0.0671 -0.026,-0.12377 -0.0722,-0.16996 -0.0462,-0.0462 -0.10285,-0.0702 -0.16997,-0.0722 l -0.37251,0 c -0.0924,7.9e-4 -0.15911,0.0225 -0.20023,0.0652 -0.0411,0.0427 -0.0613,0.10168 -0.0605,0.17695 l 0,7.971884 c -0.0116,1.224268 -0.3702,2.216872 -1.07564,2.977815 -0.70547,0.760947 -1.68798,1.152867 -2.94755,1.17576 -1.24988,-0.02367 -2.22386,-0.418693 -2.92194,-1.185073 -0.69808,-0.766375 -1.05275,-1.762084 -1.064,-2.987128 l 0,-7.953258 c -0.002,-0.0671 -0.026,-0.12377 -0.0722,-0.16996 -0.0462,-0.0462 -0.10283,-0.0702 -0.16996,-0.0722 l -0.39114,0 c -0.0671,0.002 -0.12379,0.026 -0.16996,0.0722 -0.0462,0.0462 -0.0702,0.10284 -0.0722,0.16996 z"
               id="path3223"
               style="font-weight:300;text-align:center;line-height:125%;text-anchor:middle;fill:#ffffff;font-family:Brandon Grotesque Light;-inkscape-font-specification:'Brandon Grotesque Light, Light'" />
            <path
               d="m 364.04683,-93.276835 c 0.002,0.06713 0.026,0.123784 0.0722,0.169961 0.0462,0.04618 0.10282,0.07024 0.16996,0.07218 l 4.13495,0 c 1.23007,-0.01707 2.21569,-0.346131 2.95686,-0.987173 0.74114,-0.64104 1.12142,-1.491622 1.14083,-2.551748 -0.0198,-0.88977 -0.26426,-1.587465 -0.73339,-2.093085 -0.46915,-0.50561 -1.04422,-0.844756 -1.72523,-1.01744 0.59059,-0.237473 1.07642,-0.61465 1.45748,-1.13153 0.38105,-0.51686 0.57817,-1.14548 0.59137,-1.88587 -0.0175,-1.03683 -0.37369,-1.85482 -1.06866,-2.45396 -0.69499,-0.59912 -1.62395,-0.9049 -2.7869,-0.91733 l -3.96731,0 c -0.0671,0.002 -0.12379,0.026 -0.16996,0.0722 -0.0462,0.0462 -0.0702,0.10284 -0.0722,0.16996 z m 0.87542,-6.761205 0,-5.21525 3.33403,0 c 0.90335,0.007 1.61114,0.23556 2.12335,0.68683 0.51221,0.4513 0.77297,1.08536 0.78229,1.90217 -0.006,0.77764 -0.2499,1.40627 -0.73106,1.88587 -0.48118,0.47963 -1.16258,0.72642 -2.0442,0.74038 z m -0.0186,6.221054 0,-5.420136 3.48304,0 c 0.90685,0.0066 1.65886,0.240203 2.25607,0.7008 0.59718,0.460608 0.90683,1.108633 0.92896,1.944077 -0.0151,0.824587 -0.30151,1.489686 -0.85912,1.995299 -0.55762,0.505617 -1.29567,0.765603 -2.21415,0.77996 z"
               id="path3225"
               style="font-weight:300;text-align:center;line-height:125%;text-anchor:middle;fill:#ffffff;font-family:Brandon Grotesque Light;-inkscape-font-specification:'Brandon Grotesque Light, Light'" />
            <path
               d="m 375.65178,-93.276835 c 0.002,0.06713 0.026,0.123784 0.0722,0.169961 0.0462,0.04618 0.10282,0.07024 0.16996,0.07218 l 6.57494,0 c 0.0671,-3.88e-4 0.12377,-0.01824 0.16996,-0.05355 0.0462,-0.03531 0.0702,-0.08576 0.0722,-0.151335 l 0,-0.335266 c 0.004,-0.06713 -0.009,-0.123785 -0.0372,-0.169962 -0.0287,-0.04618 -0.097,-0.07023 -0.20488,-0.07218 l -5.94166,0 0,-12.013703 c -0.002,-0.0671 -0.0256,-0.12377 -0.0698,-0.16996 -0.0442,-0.0462 -0.0955,-0.0702 -0.15366,-0.0722 l -0.40977,0 c -0.0671,0.002 -0.12379,0.026 -0.16996,0.0722 -0.0462,0.0462 -0.0702,0.10284 -0.0722,0.16996 z"
               id="path3227"
               style="font-weight:300;text-align:center;line-height:125%;text-anchor:middle;fill:#ffffff;font-family:Brandon Grotesque Light;-inkscape-font-specification:'Brandon Grotesque Light, Light'" />
            <path
               d="m 384.74658,-93.276835 c 0.002,0.06713 0.026,0.123784 0.0722,0.169961 0.0462,0.04618 0.10283,0.07024 0.16996,0.07218 l 0.39114,0 c 0.0679,-7.77e-4 0.12767,-0.02251 0.17928,-0.06519 0.0516,-0.04268 0.0788,-0.101667 0.0815,-0.176946 l 0,-12.55386 c -0.002,-0.0671 -0.026,-0.12376 -0.0722,-0.16996 -0.0462,-0.0462 -0.10283,-0.0702 -0.16996,-0.0722 l -0.40977,0 c -0.0671,0.002 -0.12379,0.026 -0.16996,0.0722 -0.0462,0.0462 -0.0702,0.10284 -0.0722,0.16996 z"
               id="path3229"
               style="font-weight:300;text-align:center;line-height:125%;text-anchor:middle;fill:#ffffff;font-family:Brandon Grotesque Light;-inkscape-font-specification:'Brandon Grotesque Light, Light'" />
            <path
               d="m 388.65371,-99.535137 c 0.0481,1.916532 0.70623,3.498956 1.97435,4.747276 1.26811,1.248323 2.85751,1.894797 4.76823,1.939421 0.83544,0.0016 1.64178,-0.145903 2.41904,-0.442365 0.77723,-0.296461 1.48579,-0.751243 2.12568,-1.364347 0.0465,-0.04928 0.0698,-0.10438 0.0698,-0.165304 -10e-6,-0.06092 -0.0233,-0.111366 -0.0698,-0.151336 l -0.31664,-0.31664 c -0.038,-0.02871 -0.0831,-0.04113 -0.13504,-0.03725 -0.052,0.0039 -0.10634,0.02872 -0.16298,0.0745 -0.55258,0.472634 -1.14705,0.849808 -1.78343,1.131523 -0.63639,0.281718 -1.35194,0.426068 -2.14663,0.433052 -1.66819,-0.04346 -3.04418,-0.617758 -4.12797,-1.722896 -1.08379,-1.105133 -1.6449,-2.480343 -1.68331,-4.125636 0.0384,-1.654981 0.59952,-3.038721 1.68331,-4.151241 1.08379,-1.1125 2.45978,-1.69068 4.12797,-1.73454 0.76559,0.004 1.47881,0.14009 2.13965,0.40744 0.66082,0.26737 1.25762,0.64067 1.79041,1.11988 0.0551,0.0567 0.10786,0.0877 0.15832,0.0931 0.0504,0.005 0.10321,-0.0194 0.15832,-0.0745 l 0.29802,-0.31664 c 0.0458,-0.0489 0.0659,-0.10476 0.0605,-0.16763 -0.005,-0.0628 -0.0318,-0.11873 -0.0792,-0.16764 -0.59953,-0.55294 -1.26774,-0.97901 -2.00461,-1.2782 -0.7369,-0.29917 -1.57739,-0.4505 -2.52148,-0.45401 -1.91072,0.0474 -3.50012,0.70237 -4.76823,1.96504 -1.26812,1.26269 -1.92623,2.84899 -1.97435,4.758911 z"
               id="path3231"
               style="font-weight:300;text-align:center;line-height:125%;text-anchor:middle;fill:#ffffff;font-family:Brandon Grotesque Light;-inkscape-font-specification:'Brandon Grotesque Light, Light'" />
            <path
               d="m 407.01064,-93.276835 c 0.002,0.06713 0.026,0.123784 0.0722,0.169961 0.0462,0.04618 0.10283,0.07024 0.16996,0.07218 l 6.57494,0 c 0.0671,-3.88e-4 0.12378,-0.01824 0.16997,-0.05355 0.0462,-0.03531 0.0702,-0.08576 0.0722,-0.151335 l 0,-0.335266 c 0.004,-0.06713 -0.009,-0.123785 -0.0372,-0.169962 -0.0287,-0.04618 -0.097,-0.07023 -0.20489,-0.07218 l -5.94166,0 0,-12.013703 c -0.002,-0.0671 -0.0256,-0.12377 -0.0698,-0.16996 -0.0442,-0.0462 -0.0955,-0.0702 -0.15367,-0.0722 l -0.40977,0 c -0.0671,0.002 -0.12378,0.026 -0.16996,0.0722 -0.0462,0.0462 -0.0702,0.10284 -0.0722,0.16996 z"
               id="path3233"
               style="font-weight:300;text-align:center;line-height:125%;text-anchor:middle;fill:#ffffff;font-family:Brandon Grotesque Light;-inkscape-font-specification:'Brandon Grotesque Light, Light'" />
            <path
               d="m 416.10542,-93.276835 c 0.002,0.06713 0.026,0.123784 0.0722,0.169961 0.0462,0.04618 0.10283,0.07024 0.16996,0.07218 l 0.39114,0 c 0.0679,-7.77e-4 0.12767,-0.02251 0.17928,-0.06519 0.0516,-0.04268 0.0788,-0.101667 0.0815,-0.176946 l 0,-12.55386 c -0.002,-0.0671 -0.026,-0.12376 -0.0722,-0.16996 -0.0462,-0.0462 -0.10283,-0.0702 -0.16996,-0.0722 l -0.40977,0 c -0.0671,0.002 -0.12379,0.026 -0.16996,0.0722 -0.0462,0.0462 -0.0702,0.10284 -0.0722,0.16996 z"
               id="path3235"
               style="font-weight:300;text-align:center;line-height:125%;text-anchor:middle;fill:#ffffff;font-family:Brandon Grotesque Light;-inkscape-font-specification:'Brandon Grotesque Light, Light'" />
            <path
               d="m 420.94386,-93.276835 c 0.002,0.06713 0.026,0.123784 0.0722,0.169961 0.0462,0.04618 0.10283,0.07024 0.16996,0.07218 l 4.13495,0 c 1.23008,-0.01707 2.2157,-0.346131 2.95686,-0.987173 0.74115,-0.64104 1.12142,-1.491622 1.14084,-2.551748 -0.0198,-0.88977 -0.26427,-1.587465 -0.7334,-2.093085 -0.46915,-0.50561 -1.04422,-0.844756 -1.72522,-1.01744 0.59059,-0.237473 1.07641,-0.61465 1.45747,-1.13153 0.38105,-0.51686 0.57817,-1.14548 0.59138,-1.88587 -0.0175,-1.03683 -0.37369,-1.85482 -1.06866,-2.45396 -0.69499,-0.59912 -1.62396,-0.9049 -2.7869,-0.91733 l -3.96732,0 c -0.0671,0.002 -0.12379,0.026 -0.16996,0.0722 -0.0462,0.0462 -0.0702,0.10284 -0.0722,0.16996 z m 0.87542,-6.761205 0,-5.21525 3.33404,0 c 0.90335,0.007 1.61113,0.23556 2.12335,0.68683 0.5122,0.4513 0.77296,1.08536 0.78229,1.90217 -0.006,0.77764 -0.24991,1.40627 -0.73107,1.88587 -0.48118,0.47963 -1.16257,0.72642 -2.04419,0.74038 z m -0.0186,6.221054 0,-5.420136 3.48305,0 c 0.90684,0.0066 1.65886,0.240203 2.25606,0.7008 0.59718,0.460608 0.90684,1.108633 0.92897,1.944077 -0.0152,0.824587 -0.30152,1.489686 -0.85912,1.995299 -0.55763,0.505617 -1.29568,0.765603 -2.21416,0.77996 z"
               id="path3237"
               style="font-weight:300;text-align:center;line-height:125%;text-anchor:middle;fill:#ffffff;font-family:Brandon Grotesque Light;-inkscape-font-specification:'Brandon Grotesque Light, Light'" />
            <path
               d="m 432.54881,-93.276835 c 0.002,0.06713 0.026,0.123784 0.0722,0.169961 0.0462,0.04618 0.10283,0.07024 0.16996,0.07218 l 0.33527,0 c 0.0939,-0.0019 0.16685,-0.026 0.21885,-0.07218 0.052,-0.04618 0.0784,-0.10283 0.0792,-0.169961 l 0,-4.786856 3.42717,0 c 0.11951,3.93e-4 0.23436,-3.83e-4 0.34457,-0.0023 0.1102,-0.0019 0.22506,-0.0074 0.34458,-0.0163 l 2.70076,4.879985 c 0.0272,0.05588 0.0613,0.09779 0.10244,0.125725 0.0411,0.02794 0.0939,0.04191 0.15832,0.04191 l 0.5774,0 c 0.0927,-0.0047 0.14939,-0.04191 0.16997,-0.111756 0.0206,-0.06985 0.007,-0.144351 -0.0396,-0.223511 l -2.71939,-4.824107 c 0.90219,-0.264638 1.63558,-0.74115 2.20019,-1.429538 0.56459,-0.688367 0.85561,-1.509467 0.87309,-2.463267 -0.0311,-1.16023 -0.43927,-2.1086 -1.22466,-2.84511 -0.7854,-0.73649 -1.7617,-1.11677 -2.92892,-1.14084 l -4.61922,0 c -0.0753,0.002 -0.13426,0.026 -0.17695,0.0722 -0.0427,0.0462 -0.0644,0.10284 -0.0652,0.16996 z m 0.89405,-5.569143 0,-6.370062 3.91143,0 c 0.92858,0.0198 1.70698,0.32015 2.33523,0.90103 0.62822,0.58091 0.95495,1.32362 0.98018,2.22813 -0.0256,0.94178 -0.35157,1.71242 -0.97786,2.311935 -0.6263,0.599527 -1.39927,0.909182 -2.31892,0.928967 z"
               id="path3239"
               style="font-weight:300;text-align:center;line-height:125%;text-anchor:middle;fill:#ffffff;font-family:Brandon Grotesque Light;-inkscape-font-specification:'Brandon Grotesque Light, Light'" />
            <path
               d="m 442.93086,-93.034698 0.52153,0 c 0.0656,-0.0023 0.12068,-0.02095 0.1653,-0.05588 0.0446,-0.03492 0.0765,-0.07218 0.0955,-0.111756 l 1.49007,-3.427165 7.11509,0 1.5087,3.427165 c 0.019,0.03958 0.0508,0.07683 0.0955,0.111756 0.0446,0.03492 0.0997,0.05355 0.16531,0.05588 l 0.48427,0 c 0.0989,-0.0023 0.15714,-0.02561 0.17462,-0.06985 0.0174,-0.04424 0.0151,-0.09546 -0.007,-0.153663 l -5.6809,-12.963619 c -0.0287,-0.0543 -0.0644,-0.09 -0.1071,-0.1071 -0.0427,-0.0171 -0.0877,-0.0248 -0.13503,-0.0233 l -0.0559,0 c -0.0477,7.8e-4 -0.092,0.0132 -0.13271,0.0373 -0.0408,0.0241 -0.071,0.0551 -0.0908,0.0931 l -5.73678,12.963619 c -0.0272,0.0745 -0.0287,0.130381 -0.005,0.167633 0.0241,0.03725 0.0691,0.05588 0.13504,0.05588 z m 2.60763,-4.321209 3.2409,-7.506233 0.0373,0 3.18502,7.506233 z"
               id="path3241"
               style="font-weight:300;text-align:center;line-height:125%;text-anchor:middle;fill:#ffffff;font-family:Brandon Grotesque Light;-inkscape-font-specification:'Brandon Grotesque Light, Light'" />
            <path
               d="m 456.81372,-93.276835 c 0.002,0.06713 0.026,0.123784 0.0722,0.169961 0.0462,0.04618 0.10283,0.07024 0.16996,0.07218 l 0.33526,0 c 0.0939,-0.0019 0.16686,-0.026 0.21886,-0.07218 0.052,-0.04618 0.0784,-0.10283 0.0792,-0.169961 l 0,-4.786856 3.42716,0 c 0.11951,3.93e-4 0.23437,-3.83e-4 0.34458,-0.0023 0.1102,-0.0019 0.22506,-0.0074 0.34458,-0.0163 l 2.70076,4.879985 c 0.0272,0.05588 0.0613,0.09779 0.10244,0.125725 0.0411,0.02794 0.0939,0.04191 0.15832,0.04191 l 0.5774,0 c 0.0927,-0.0047 0.14939,-0.04191 0.16996,-0.111756 0.0206,-0.06985 0.007,-0.144351 -0.0396,-0.223511 l -2.71938,-4.824107 c 0.90219,-0.264638 1.63558,-0.74115 2.20019,-1.429538 0.56458,-0.688367 0.85561,-1.509467 0.87309,-2.463267 -0.0311,-1.16023 -0.43928,-2.1086 -1.22466,-2.84511 -0.7854,-0.73649 -1.7617,-1.11677 -2.92892,-1.14084 l -4.61922,0 c -0.0753,0.002 -0.13427,0.026 -0.17695,0.0722 -0.0427,0.0462 -0.0644,0.10284 -0.0652,0.16996 z m 0.89404,-5.569143 0,-6.370062 3.91144,0 c 0.92857,0.0198 1.70698,0.32015 2.33522,0.90103 0.62823,0.58091 0.95496,1.32362 0.98019,2.22813 -0.0256,0.94178 -0.35157,1.71242 -0.97786,2.311935 -0.6263,0.599527 -1.39928,0.909182 -2.31892,0.928967 z"
               id="path3243"
               style="font-weight:300;text-align:center;line-height:125%;text-anchor:middle;fill:#ffffff;font-family:Brandon Grotesque Light;-inkscape-font-specification:'Brandon Grotesque Light, Light'" />
            <path
               d="m 471.666,-93.276835 c 0.0113,0.14047 0.0865,0.218078 0.22584,0.232823 0.1393,0.01475 0.27512,0.01785 0.40744,0.0093 0.0671,-0.0019 0.12378,-0.026 0.16996,-0.07218 0.0462,-0.04618 0.0702,-0.10283 0.0722,-0.169961 l 0,-6.109294 4.84273,-6.407313 c 0.0543,-0.0768 0.0667,-0.14201 0.0373,-0.19557 -0.0295,-0.0535 -0.0916,-0.0815 -0.18626,-0.0838 l -0.55877,0 c -0.0473,2e-5 -0.0924,0.009 -0.13504,0.0279 -0.0427,0.0186 -0.0784,0.0466 -0.1071,0.0838 l -4.32121,5.79265 -4.2467,-5.79265 c -0.0287,-0.0372 -0.0644,-0.0652 -0.1071,-0.0838 -0.0427,-0.0186 -0.0877,-0.0279 -0.13504,-0.0279 l -0.55878,0 c -0.0947,0.002 -0.15676,0.0303 -0.18625,0.0838 -0.0295,0.0536 -0.0171,0.11875 0.0373,0.19557 l 4.7496,6.425939 z"
               id="path3245"
               style="font-weight:300;text-align:center;line-height:125%;text-anchor:middle;fill:#ffffff;font-family:Brandon Grotesque Light;-inkscape-font-specification:'Brandon Grotesque Light, Light'" />
          </g>
          <g
             id="text4547"
             style="font-size:50.57998657px;font-style:normal;font-variant:normal;font-weight:normal;font-stretch:normal;text-align:start;line-height:125%;letter-spacing:0px;word-spacing:0px;writing-mode:lr-tb;text-anchor:start;fill:#ffffff;stroke:none;font-family:Arial;-inkscape-font-specification:Arial">
            <path
               d="m 225.27104,-136.26437 c 0.12645,5.20441 1.89672,9.50155 5.31083,12.89141 3.41409,3.38987 7.71333,5.14539 12.89773,5.26657 5.20859,-0.12118 9.52258,-1.8767 12.94199,-5.26657 3.41934,-3.38987 5.19172,-7.687 5.31715,-12.89141 -0.12543,-5.18647 -1.89781,-9.49414 -5.31715,-12.92302 -3.41941,-3.42883 -7.7334,-5.20753 -12.94199,-5.33612 -5.1844,0.12859 -9.48363,1.90729 -12.89773,5.33612 -3.41411,3.42888 -5.18438,7.73655 -5.31083,12.92302 z m 2.22549,0 c 0.11275,-4.54053 1.67017,-8.31922 4.67227,-11.33609 3.00208,-3.01682 6.77234,-4.58267 11.3108,-4.69756 4.54053,0.11489 8.31922,1.68074 11.3361,4.69756 3.01681,3.01687 4.58266,6.79556 4.69755,11.33609 -0.11489,4.53635 -1.68074,8.29818 -4.69755,11.28551 -3.01688,2.98735 -6.79557,4.53634 -11.3361,4.64698 -4.53846,-0.11064 -8.30872,-1.65963 -11.3108,-4.64698 -3.0021,-2.98733 -4.55952,-6.74916 -4.67227,-11.28551 z"
               id="path3184"
               style="font-weight:300;line-height:125%;fill:#ffffff;font-family:Brandon Grotesque Light;-inkscape-font-specification:'Brandon Grotesque Light, Light'" />
            <path
               d="m 269.4795,-131.50991 c 0.0506,3.94414 1.25184,7.14539 3.60378,9.60375 2.35193,2.45837 5.55107,3.72495 9.59743,3.79977 4.07267,-0.0748 7.29499,-1.3414 9.66697,-3.79977 2.37193,-2.45836 3.58373,-5.65961 3.63539,-9.60375 l 0,-21.85028 c -0.005,-0.18226 -0.0706,-0.3361 -0.19599,-0.46153 -0.12543,-0.12536 -0.27927,-0.19069 -0.46154,-0.196 l -1.01158,0 c -0.25082,0.002 -0.43207,0.0611 -0.54373,0.17703 -0.11173,0.11595 -0.16652,0.27611 -0.16438,0.4805 l 0,21.64796 c -0.0316,3.32455 -1.0053,6.02 -2.92096,8.08637 -1.91572,2.06638 -4.58377,3.13065 -8.00418,3.19282 -3.3941,-0.0643 -6.03897,-1.13698 -7.93463,-3.21811 -1.89568,-2.08112 -2.8588,-4.78501 -2.88935,-8.11166 l 0,-21.59738 c -0.005,-0.18226 -0.0706,-0.3361 -0.19599,-0.46153 -0.12541,-0.12536 -0.27925,-0.19069 -0.46154,-0.196 l -1.06217,0 c -0.1823,0.005 -0.33614,0.0706 -0.46153,0.196 -0.1254,0.12543 -0.19073,0.27927 -0.196,0.46153 z"
               id="path3186"
               style="font-weight:300;line-height:125%;fill:#ffffff;font-family:Brandon Grotesque Light;-inkscape-font-specification:'Brandon Grotesque Light, Light'" />
            <path
               d="m 311.6987,-119.26971 c 0.005,0.18229 0.0706,0.33614 0.196,0.46153 0.12538,0.1254 0.27923,0.19073 0.46153,0.196 l 0.91043,0 c 0.25499,-0.005 0.4531,-0.0706 0.59431,-0.196 0.14119,-0.12539 0.21284,-0.27924 0.21496,-0.46153 l 0,-32.5731 9.71123,0 c 0.20441,-0.005 0.36457,-0.0706 0.48051,-0.19599 0.11588,-0.12536 0.17489,-0.27921 0.17703,-0.46154 l 0,-0.85985 c -0.002,-0.18226 -0.0611,-0.3361 -0.17703,-0.46153 -0.11594,-0.12536 -0.27611,-0.19069 -0.48051,-0.196 l -21.74911,0 c -0.1823,0.002 -0.33614,0.0611 -0.46154,0.17703 -0.12539,0.11595 -0.19072,0.27611 -0.19599,0.4805 l 0,0.75869 c -0.004,0.23081 0.0421,0.41416 0.13909,0.55005 0.0969,0.13597 0.26976,0.20552 0.51844,0.20864 l 9.66065,0 z"
               id="path3188"
               style="font-weight:300;line-height:125%;fill:#ffffff;font-family:Brandon Grotesque Light;-inkscape-font-specification:'Brandon Grotesque Light, Light'" />
            <path
               d="m 330.24424,-119.26971 c 0.005,0.18229 0.0706,0.33614 0.19599,0.46153 0.12539,0.1254 0.27924,0.19073 0.46154,0.196 l 20.28231,0 c 0.18227,-0.005 0.33612,-0.0706 0.46154,-0.196 0.12537,-0.12539 0.1907,-0.27924 0.19599,-0.46153 l 0,-0.80927 c -0.005,-0.1823 -0.0706,-0.33614 -0.19599,-0.46154 -0.12542,-0.12539 -0.27927,-0.19072 -0.46154,-0.19599 l -18.51203,0 0,-14.97149 16.03364,0 c 0.18228,-0.005 0.33612,-0.0706 0.46154,-0.19599 0.12537,-0.12538 0.1907,-0.27923 0.196,-0.46154 l 0,-0.85985 c -0.005,-0.18228 -0.0706,-0.33612 -0.196,-0.46153 -0.12542,-0.12538 -0.27926,-0.19071 -0.46154,-0.196 l -16.03364,0 0,-13.9599 18.51203,0 c 0.18227,-0.005 0.33612,-0.0706 0.46154,-0.19599 0.12537,-0.12536 0.1907,-0.27921 0.19599,-0.46154 l 0,-0.85985 c -0.005,-0.18226 -0.0706,-0.3361 -0.19599,-0.46153 -0.12542,-0.12536 -0.27927,-0.19069 -0.46154,-0.196 l -20.28231,0 c -0.1823,0.005 -0.33615,0.0706 -0.46154,0.196 -0.1254,0.12543 -0.19073,0.27927 -0.19599,0.46153 z"
               id="path3190"
               style="font-weight:300;line-height:125%;fill:#ffffff;font-family:Brandon Grotesque Light;-inkscape-font-specification:'Brandon Grotesque Light, Light'" />
            <path
               d="m 360.47368,-119.26971 c 0.005,0.18229 0.0706,0.33614 0.196,0.46153 0.12539,0.1254 0.27923,0.19073 0.46154,0.196 l 0.91042,0 c 0.255,-0.005 0.4531,-0.0706 0.59431,-0.196 0.14119,-0.12539 0.21285,-0.27924 0.21496,-0.46153 l 0,-12.99889 9.3066,0 c 0.32453,0.001 0.63644,-0.001 0.93572,-0.006 0.29924,-0.005 0.61115,-0.02 0.93572,-0.0442 l 7.334,13.25178 c 0.0737,0.15174 0.16646,0.26555 0.27818,0.34141 0.11167,0.0759 0.25498,0.11381 0.42993,0.11381 l 1.56796,0 c 0.25181,-0.0127 0.40566,-0.11381 0.46154,-0.30348 0.0558,-0.18967 0.02,-0.39199 -0.10749,-0.60695 l -7.38458,-13.10005 c 2.44991,-0.71863 4.44147,-2.01262 5.97469,-3.88196 1.53315,-1.86931 2.32345,-4.09901 2.3709,-6.68912 -0.0843,-3.15064 -1.19286,-5.72597 -3.32559,-7.72599 -2.13279,-1.99996 -4.78398,-3.03262 -7.9536,-3.09799 l -12.54367,0 c -0.20444,0.005 -0.3646,0.0706 -0.48051,0.196 -0.11592,0.12543 -0.17493,0.27927 -0.17703,0.46153 z m 2.42781,-15.12323 0,-17.29813 10.62166,0 c 2.52157,0.0538 4.63536,0.86937 6.34139,2.44678 1.70597,1.57747 2.59321,3.59432 2.66173,6.05055 -0.0696,2.55744 -0.95471,4.65016 -2.65541,6.27816 -1.70076,1.62804 -3.7998,2.46892 -6.29713,2.52264 z"
               id="path3192"
               style="font-weight:300;line-height:125%;fill:#ffffff;font-family:Brandon Grotesque Light;-inkscape-font-specification:'Brandon Grotesque Light, Light'" />
            <path
               d="m 393.37043,-119.26971 c 0.005,0.18229 0.0706,0.33614 0.19599,0.46153 0.12539,0.1254 0.27924,0.19073 0.46154,0.196 l 0.96101,0 c 0.18229,-0.005 0.33613,-0.0706 0.46153,-0.196 0.12539,-0.12539 0.19072,-0.27924 0.196,-0.46153 l 0,-30.75224 c 0.002,3e-5 0.0105,3e-5 0.0253,0 0.0147,3e-5 0.0232,3e-5 0.0253,0 5.94569,7.85905 10.59688,13.9881 13.95357,18.38717 3.35665,4.39909 5.78235,7.55977 7.2771,9.48204 1.4947,1.92228 2.42199,3.09772 2.78187,3.52633 0.35982,0.42861 0.51577,0.60195 0.46786,0.52002 l 0.65753,0 c 0.21071,0.001 0.39617,-0.0516 0.55637,-0.15806 0.16013,-0.10643 0.24443,-0.27292 0.2529,-0.49947 l 0,-34.59627 c -0.005,-0.18226 -0.0706,-0.3361 -0.196,-0.46153 -0.12543,-0.12536 -0.27927,-0.19069 -0.46154,-0.196 l -1.01158,0 c -0.18233,0.005 -0.33618,0.0706 -0.46154,0.196 -0.12542,0.12543 -0.19076,0.27927 -0.19599,0.46153 l 0,30.44876 c 0.008,10e-6 -0.008,10e-6 -0.0506,0 l -24.27808,-31.61208 -0.85985,0 c -0.20865,0.002 -0.38568,0.0611 -0.53109,0.17703 -0.14542,0.11594 -0.22129,0.27611 -0.2276,0.4805 z"
               id="path3194"
               style="font-weight:300;line-height:125%;fill:#ffffff;font-family:Brandon Grotesque Light;-inkscape-font-specification:'Brandon Grotesque Light, Light'" />
            <path
               d="m 432.39209,-119.26971 c 0.005,0.18229 0.0706,0.33614 0.196,0.46153 0.12539,0.1254 0.27923,0.19073 0.46154,0.196 l 20.28231,0 c 0.18227,-0.005 0.33611,-0.0706 0.46154,-0.196 0.12536,-0.12539 0.1907,-0.27924 0.19599,-0.46153 l 0,-0.80927 c -0.005,-0.1823 -0.0706,-0.33614 -0.19599,-0.46154 -0.12543,-0.12539 -0.27927,-0.19072 -0.46154,-0.19599 l -18.51204,0 0,-14.97149 16.03365,0 c 0.18227,-0.005 0.33612,-0.0706 0.46154,-0.19599 0.12537,-0.12538 0.1907,-0.27923 0.19599,-0.46154 l 0,-0.85985 c -0.005,-0.18228 -0.0706,-0.33612 -0.19599,-0.46153 -0.12542,-0.12538 -0.27927,-0.19071 -0.46154,-0.196 l -16.03365,0 0,-13.9599 18.51204,0 c 0.18227,-0.005 0.33611,-0.0706 0.46154,-0.19599 0.12536,-0.12536 0.1907,-0.27921 0.19599,-0.46154 l 0,-0.85985 c -0.005,-0.18226 -0.0706,-0.3361 -0.19599,-0.46153 -0.12543,-0.12536 -0.27927,-0.19069 -0.46154,-0.196 l -20.28231,0 c -0.18231,0.005 -0.33615,0.0706 -0.46154,0.196 -0.1254,0.12543 -0.19073,0.27927 -0.196,0.46153 z"
               id="path3196"
               style="font-weight:300;line-height:125%;fill:#ffffff;font-family:Brandon Grotesque Light;-inkscape-font-specification:'Brandon Grotesque Light, Light'" />
            <path
               d="m 467.98295,-119.26971 c 0.005,0.18229 0.0706,0.33614 0.196,0.46153 0.12538,0.1254 0.27923,0.19073 0.46153,0.196 l 0.91043,0 c 0.25499,-0.005 0.45309,-0.0706 0.59431,-0.196 0.14119,-0.12539 0.21284,-0.27924 0.21496,-0.46153 l 0,-32.5731 9.71123,0 c 0.2044,-0.005 0.36457,-0.0706 0.48051,-0.19599 0.11588,-0.12536 0.17489,-0.27921 0.17702,-0.46154 l 0,-0.85985 c -0.002,-0.18226 -0.0611,-0.3361 -0.17702,-0.46153 -0.11594,-0.12536 -0.27611,-0.19069 -0.48051,-0.196 l -21.74911,0 c -0.1823,0.002 -0.33615,0.0611 -0.46154,0.17703 -0.12539,0.11595 -0.19073,0.27611 -0.19599,0.4805 l 0,0.75869 c -0.004,0.23081 0.0422,0.41416 0.13909,0.55005 0.0969,0.13597 0.26976,0.20552 0.51844,0.20864 l 9.66065,0 z"
               id="path3198"
               style="font-weight:300;line-height:125%;fill:#ffffff;font-family:Brandon Grotesque Light;-inkscape-font-specification:'Brandon Grotesque Light, Light'" />
          </g>
        </g>
      </g>
    </g>
  </g>
</svg>
