<?xml version="1.0" encoding="UTF-8" standalone="no"?>
<svg
   xmlns:dc="http://purl.org/dc/elements/1.1/"
   xmlns:cc="http://creativecommons.org/ns#"
   xmlns:rdf="http://www.w3.org/1999/02/22-rdf-syntax-ns#"
   xmlns:svg="http://www.w3.org/2000/svg"
   xmlns="http://www.w3.org/2000/svg"
   version="1.1"
   id="svg2"
   viewBox="0 0 19 19"
   height="19"
   width="19">
  <defs
     id="defs4" />
  <metadata
     id="metadata7">
    <rdf:RDF>
      <cc:Work
         rdf:about="">
        <dc:format>image/svg+xml</dc:format>
        <dc:type
           rdf:resource="http://purl.org/dc/dcmitype/StillImage" />
        <dc:title></dc:title>
      </cc:Work>
    </rdf:RDF>
  </metadata>
  <g
     transform="translate(0,-1033.3622)"
     id="layer1">
    <path
       id="path3336"
       d="m 11.711907,1033.3633 a 7.182365,7.182365 0 0 0 -4.9736292,2.1028 7.182365,7.182365 0 0 0 -0.979233,8.9197 l -5.52250305,5.5226 c -0.315389,0.3152 -0.315389,0.8233 0,1.1387 l 1.07854705,1.0786 c 0.3153879,0.3153 0.823408,0.3153 1.138797,0 l 5.519853,-5.5199 a 7.182365,7.182365 0 0 0 8.9223412,-0.9818 7.182365,7.182365 0 0 0 0,-10.1579 7.182365,7.182365 0 0 0 -5.184173,-2.1028 z m 0.179427,2.0764 a 5.106047,5.106047 0 0 1 3.536228,1.495 5.106047,5.106047 0 0 1 0,7.2207 5.106047,5.106047 0 0 1 -7.2207673,0 5.106047,5.106047 0 0 1 0,-7.2207 5.106047,5.106047 0 0 1 3.6845393,-1.495 z"
       style="fill:#ffffff" />
  </g>
</svg>
