<?xml version="1.0" encoding="UTF-8" standalone="no"?>
<svg
   xmlns:dc="http://purl.org/dc/elements/1.1/"
   xmlns:cc="http://creativecommons.org/ns#"
   xmlns:rdf="http://www.w3.org/1999/02/22-rdf-syntax-ns#"
   xmlns:svg="http://www.w3.org/2000/svg"
   xmlns="http://www.w3.org/2000/svg"
   id="svg2"
   height="24"
   width="24"
   version="1.1">
  <defs
     id="defs4" />
  <metadata
     id="metadata7">
    <rdf:RDF>
      <cc:Work
         rdf:about="">
        <dc:format>image/svg+xml</dc:format>
        <dc:type
           rdf:resource="http://purl.org/dc/dcmitype/StillImage" />
        <dc:title></dc:title>
      </cc:Work>
    </rdf:RDF>
  </metadata>
  <path
     id="rect3459"
     d="m 8.2306142,0.61613956 c -0.4549375,0 -0.8222203,0.36518001 -0.8222203,0.82011734 l 0,6.4494873 2.9587311,0 c 0.481983,0 0.868484,0.3886041 0.868484,0.8705863 l 0,4.2330675 1.612897,0 0,-1.66547 c 0,-0.498677 0.401349,-0.900025 0.900026,-0.900026 l 4.062736,0 0,-8.9876451 c 0,-0.45493711 -0.367283,-0.82011734 -0.82222,-0.82011734 l -8.7584338,0 z M 0.82222034,8.6343642 C 0.36728294,8.6343642 6e-8,8.9995442 6e-8,9.4544817 l 0,10.7309203 c 0,0.454937 0.36728288,0.820118 0.82222028,0.820118 l 8.75843356,0 c 0.4549371,0 0.8222151,-0.365181 0.8222201,-0.820118 l 0,-10.7309203 c 0,-0.4549375 -0.367283,-0.8201175 -0.8222201,-0.8201175 l -8.75843356,0 z m 0.95890646,1.2848501 6.8406202,0 c 0.3331466,0 0.6014199,0.2682727 0.6014199,0.6014197 l 0,8.598615 c 0,0.333147 -0.2682733,0.60142 -0.6014199,0.60142 l -6.8406202,0 c -0.3331466,0 -0.6014195,-0.268273 -0.6014195,-0.60142 l 0,-8.598615 c 0,-0.333147 0.2682729,-0.6014165 0.6014195,-0.6014197 z m 0.1745378,0.8684837 0,1.076667 4.7692981,0 0,-1.076667 -4.7692981,0 z m 12.4636814,0.225007 c -0.454937,0 -0.82222,0.365178 -0.82222,0.820116 l 0,10.730921 c 0,0.454937 0.367283,0.820118 0.82222,0.820118 l 8.758434,0 c 0.454937,0 0.822216,-0.365181 0.82222,-0.820118 l 0,-10.730921 c 0,-0.454938 -0.367283,-0.820117 -0.82222,-0.820116 l -8.758434,0 z m 0.958907,1.28485 6.84062,0 c 0.333147,0 0.60142,0.268273 0.60142,0.60142 l 0,8.598615 c 0,0.333147 -0.268273,0.601419 -0.60142,0.601419 l -6.84062,0 c -0.333147,0 -0.601419,-0.268272 -0.601419,-0.601419 l 0,-8.598615 c 0,-0.333147 0.268272,-0.601417 0.601419,-0.60142 z m -13.4225884,0.561465 0,1.076667 6.3275212,0 0,-1.076667 -6.3275212,0 z m 13.5971264,0.307019 0,1.076667 4.769298,0 0,-1.076667 -4.769298,0 z m -13.5971264,1.7622 0,1.076667 6.3275212,0 0,-1.076667 -6.3275212,0 z m 13.5971264,0.309122 0,1.076667 6.327521,0 0,-1.076667 -6.327521,0 z m -13.5971264,1.760097 0,1.076667 6.3275212,0 0,-1.076667 -6.3275212,0 z m 13.5971264,0.309122 0,1.076667 6.327521,0 0,-1.076667 -6.327521,0 z m 0,2.069219 0,1.076667 6.327521,0 0,-1.076667 -6.327521,0 z"
     style="fill:#ffffff" />
</svg>
