<?xml version="1.0" encoding="UTF-8" standalone="no"?>
<svg
   xmlns:dc="http://purl.org/dc/elements/1.1/"
   xmlns:cc="http://creativecommons.org/ns#"
   xmlns:rdf="http://www.w3.org/1999/02/22-rdf-syntax-ns#"
   xmlns:svg="http://www.w3.org/2000/svg"
   xmlns="http://www.w3.org/2000/svg"
   width="14"
   height="14"
   viewBox="0 0 14 14"
   id="svg3344"
   version="1.1">
  <defs
     id="defs3346" />
  <metadata
     id="metadata3349">
    <rdf:RDF>
      <cc:Work
         rdf:about="">
        <dc:format>image/svg+xml</dc:format>
        <dc:type
           rdf:resource="http://purl.org/dc/dcmitype/StillImage" />
        <dc:title></dc:title>
      </cc:Work>
    </rdf:RDF>
  </metadata>
  <g
     id="layer1"
     transform="translate(0,-1038.3622)">
    <path
       style="fill:#ffffff"
       d="m 7.610061,1038.3622 -0.762326,0.7632 -4.2663502,4.2697 -2.2643447,2.2661 c -0.42222844,0.4225 -0.42222806,1.1033 2.8e-7,1.5258 l 4.85481242,4.8586 c 0.4222283,0.4227 1.1013942,0.4217 1.5236226,0 l 2.2643446,-2.266 4.26635,-4.2697 0.762326,-0.763 0.01187,-6.3669 z m 5.140165,1.2394 c 0.509128,0.5095 0.509128,1.3356 0,1.8451 -0.509089,0.5095 -1.334486,0.5095 -1.843575,0 -0.509128,-0.5095 -0.509128,-1.3356 0,-1.8451 0.509089,-0.5095 1.334486,-0.5095 1.843575,0 z"
       id="rect3352" />
  </g>
</svg>
