<?xml version="1.0" encoding="UTF-8" standalone="no"?>
<svg
   xmlns:dc="http://purl.org/dc/elements/1.1/"
   xmlns:cc="http://creativecommons.org/ns#"
   xmlns:rdf="http://www.w3.org/1999/02/22-rdf-syntax-ns#"
   xmlns:svg="http://www.w3.org/2000/svg"
   xmlns="http://www.w3.org/2000/svg"
   version="1.1"
   id="svg3545"
   viewBox="0 0 16 16"
   height="16"
   width="16">
  <defs
     id="defs3547" />
  <metadata
     id="metadata3550">
    <rdf:RDF>
      <cc:Work
         rdf:about="">
        <dc:format>image/svg+xml</dc:format>
        <dc:type
           rdf:resource="http://purl.org/dc/dcmitype/StillImage" />
        <dc:title></dc:title>
      </cc:Work>
    </rdf:RDF>
  </metadata>
  <g
     transform="translate(0,-1036.3622)"
     id="layer1">
    <path
       id="path3675"
       d="m 7.9999999,1037.3603 c -2.8973536,0 -5.7951709,1.1022 -8.000000025,3.307 l 1.458385725,1.4564 c 3.6224914,-3.6225 9.4627554,-3.6225 13.0852394,0 L 16,1040.6673 c -2.204825,-2.2048 -5.102647,-3.307 -8.0000001,-3.307 z m 0,4.6387 c -1.7592553,-2e-4 -3.5201374,0.6044 -4.8559216,1.8164 l 1.5308021,1.388 c 1.8451821,-1.6741 4.8050568,-1.6741 6.6502386,0 l 1.528791,-1.388 c -1.335785,-1.2113 -3.0946548,-1.8162 -4.8539101,-1.8164 z m -0.040231,3.9708 a 2.6972786,2.6972786 0 0 0 -1.8667337,0.7906 2.6972786,2.6972786 0 0 0 0,3.8139 2.6972786,2.6972786 0 0 0 3.8139303,0 2.6972786,2.6972786 0 0 0 0,-3.8139 2.6972786,2.6972786 0 0 0 -1.9471966,-0.7906 z"
       style="color:#000000;font-style:normal;font-variant:normal;font-weight:normal;font-stretch:normal;font-size:medium;line-height:normal;font-family:sans-serif;text-indent:0;text-align:start;text-decoration:none;text-decoration-line:none;text-decoration-style:solid;text-decoration-color:#000000;letter-spacing:normal;word-spacing:normal;text-transform:none;direction:ltr;block-progression:tb;writing-mode:lr-tb;baseline-shift:baseline;text-anchor:start;white-space:normal;clip-rule:nonzero;display:inline;overflow:visible;visibility:visible;opacity:1;isolation:auto;mix-blend-mode:normal;color-interpolation:sRGB;color-interpolation-filters:linearRGB;solid-color:#000000;solid-opacity:1;fill:#000000;fill-opacity:1;fill-rule:nonzero;stroke:none;stroke-width:2;stroke-linecap:butt;stroke-linejoin:miter;stroke-miterlimit:4;stroke-dasharray:none;stroke-dashoffset:0;stroke-opacity:1;color-rendering:auto;image-rendering:auto;shape-rendering:auto;text-rendering:auto;enable-background:accumulate" />
  </g>
</svg>
